<?xml version="1.0" encoding="utf-8"?>
<!-- Generator: Adobe Illustrator 22.0.1, SVG Export Plug-In . SVG Version: 6.00 Build 0)  -->
<svg version="1.1" id="Layer_1" xmlns="http://www.w3.org/2000/svg" xmlns:xlink="http://www.w3.org/1999/xlink" x="0px" y="0px"
	 viewBox="0 0 44 44" style="enable-background:new 0 0 44 44;" xml:space="preserve">
<style type="text/css">
	.st0{fill:#FFFFFF;}
	.st1{fill:#27D798;}
</style>
<title>Page 1</title>
<desc>Created with Sketch.</desc>
<g id="https:_x2F__x2F_aestheticintegration.github.io_x2F_ipl" transform="translate(-296.000000, -18.000000)">
	<g id="Page-1" transform="translate(296.000000, 17.488281)">
		<path id="Fill-2" class="st0" d="M0.3,41.6h22V6.4L3.9,6.3L0.3,41.6z M4.7,7.2l16.7,0.1v33.4h-20L4.7,7.2z"/>
		<polygon id="Fill-1" class="st1" points="0.8,41.2 21.8,41.2 21.8,6.8 4.3,6.7 		"/>
		<g id="Group-27" transform="translate(2.281481, 0.535692)">
			<path id="Fill-3" class="st1" d="M19.6,40c0,0-0.7-1.2-7.1-2.4c-5.8-1.1-11.1,0.7-11.1,0.7L4,4.8c0,0,4.9-2,9.4-1.5
				S19.6,6,19.6,6V40z"/>
			<path id="Fill-5" class="st0" d="M8.5,36.7c1.3,0,2.6,0.1,4,0.4c3.8,0.7,5.7,1.5,6.6,2V6.1c-0.4-0.4-2-1.9-5.7-2.3
				c-3.8-0.5-8,1-9,1.3L1.9,37.6C3.1,37.3,5.5,36.7,8.5,36.7z M20,41.7l-0.8-1.5c-0.1-0.1-1.2-1.2-6.8-2.2
				c-5.6-1.1-10.8,0.7-10.9,0.7l-0.7,0.2L3.6,4.5l0.2-0.1C4,4.3,8.9,2.3,13.5,2.9c4.7,0.6,6.3,2.7,6.4,2.8L20,5.8V41.7z"/>
			<polygon id="Fill-7" class="st1" points="19.6,40.6 40.5,40.6 37.1,6.2 19.6,6.3 			"/>
			<path id="Fill-9" class="st0" d="M20,40.2h20L36.7,6.7L20,6.7V40.2z M41.1,41.1h-22V5.8l18.4-0.1L41.1,41.1z"/>
			<path id="Fill-11" class="st1" d="M19.6,40c0,0,2.6-1.8,7.7-2.3c6.1-0.6,10.5,0.6,10.5,0.6L35.1,4.8c0,0-4.9-2-9.4-1.5
				S19.6,6,19.6,6V40z"/>
			<path id="Fill-13" class="st0" d="M20,6.1v33c1.1-0.6,3.5-1.6,7.2-2c4.8-0.5,8.5,0.1,10,0.5L34.7,5.2c-1-0.4-5.2-1.8-9-1.3
				C22,4.3,20.4,5.7,20,6.1z M19.1,40.9l0-35l0.1-0.1c0.1-0.1,1.7-2.2,6.4-2.8c4.6-0.6,9.5,1.4,9.7,1.5l0.2,0.1l2.8,34.4l-0.7-0.2
				c0,0-4.4-1.2-10.4-0.6c-4.9,0.5-7.4,2.2-7.5,2.3L19.1,40.9z"/>
			<path id="Fill-15" class="st1" d="M33.2,4c0,0-2.8-1.8-6.8-1.3s-6.8,2.8-6.8,2.8s-1.9-2-5.9-2.5c-4-0.5-7.7,1-7.7,1L3.8,35.4
				c0,0,4.2-0.7,8.5,0.2c5.7,1.1,7.3,3.7,7.3,3.7s2.3-2.5,7.2-3.5c5-1,8.6-0.4,8.6-0.4L33.2,4z"/>
			<path id="Fill-17" class="st0" d="M19.6,38.3c-1.2-0.9-4-2.5-7.2-3.2c-1.7-0.3-3.3-0.4-4.7-0.4c-1.4,0-2.6,0.1-3.3,0.2l2-30.5
				C7.2,4,10.2,3,13.5,3.4c2.6,0.3,5.1,1.9,6,2.5c0.6-0.5,3.5-2.4,6.8-2.8c3.3-0.4,5.7,0.8,6.4,1.1l2,30.6c-1.3-0.1-4.3-0.3-8.1,0.5
				C23.3,36,20.6,37.4,19.6,38.3z M33.6,3.7l-0.2-0.1c-0.1-0.1-3-1.9-7.1-1.4c-3.4,0.4-5.9,2-6.7,2.6c-0.7-0.6-2.6-2-5.9-2.4
				C9.6,2,5.9,3.5,5.8,3.6L5.5,3.7L3.2,35.9l0.6-0.1c0,0,4.2-0.7,8.3,0.1c3.9,0.8,6.1,2.5,6.9,3.4v1l0.4-0.5c0,0,0,0,0,0v0l0.3-0.4
				c0,0,2.2-2.4,7-3.3c4.8-1,8.4-0.4,8.4-0.4l0.6,0.1L33.6,3.7z"/>
		</g>
		<g id="Group-6-Copy-3">
			<path id="Fill-27-Copy-4_1_" class="st0" d="M25.6,11.6c-2,3.2-4.3,6.3-6.7,9.3c-0.9-1.2-1.8-2.5-2.6-3.7
				c-1.2-0.1-2.4-0.1-3.6-0.2c1.8,2.7,3.7,5.4,5.7,8c0.2,0,0.5,0,0.7,0c2.6-3,5-6,7.2-9.1c0.2,4.2,0.4,8.3,0.5,12.5
				c-0.9,0-1.7,0.1-2.6,0.1c0,0.9,0,1.8,0.1,2.6c2.9-0.1,5.9-0.2,8.8-0.5c-0.1-0.9-0.2-1.7-0.2-2.6c-0.9,0.1-1.8,0.2-2.7,0.2
				c-0.3-4.7-0.7-9.4-1-14.1c0.8-0.1,1.6-0.1,2.4-0.2c-0.1-0.9-0.2-1.8-0.3-2.7C29.4,11.4,27.5,11.5,25.6,11.6z"/>
			<path id="Fill-29-Copy-4_1_" class="st0" d="M15.5,11.5c-0.9-0.1-1.8,0.5-1.8,1.6c0,0,0,0,0,0c-0.1,1.1,0.7,1.8,1.6,1.9l0,0
				c0.9,0.1,1.8-0.5,1.8-1.6l0,0C17.2,12.2,16.4,11.6,15.5,11.5C15.5,11.5,15.5,11.5,15.5,11.5z M11.5,16.9
				c-0.1,0.8-0.2,1.6-0.2,2.4c0.7,0.1,1.5,0.1,2.2,0.2c-0.2,3-0.4,5.9-0.7,8.9c-0.8-0.1-1.7-0.1-2.5-0.2c-0.1,0.8-0.2,1.6-0.2,2.5
				c2.7,0.3,5.5,0.4,8.2,0.5c0-0.8,0-1.6,0.1-2.5c-0.8,0-1.6-0.1-2.4-0.1c0.2-3.8,0.4-7.5,0.5-11.3C14.9,17.2,13.2,17.1,11.5,16.9z"
				/>
		</g>
	</g>
</g>
</svg>
