<svg width="94" height="83" viewBox="0 0 94 83" fill="none" xmlns="http://www.w3.org/2000/svg">
<path d="M28.9773 4.2994L45.0573 30.7134C46.0175 32.2907 48.3055 32.2958 49.2727 30.7228L65.4547 4.40638C66.4653 2.76292 65.2867 0.64706 63.3574 0.641227L31.0954 0.543648C29.1643 0.537808 27.9732 2.64994 28.9773 4.2994Z" fill="#0150FF"/>
<path d="M65.4701 79.1812L49.2712 52.544C48.308 50.9602 46.0086 50.9616 45.0473 52.5465L28.9504 79.0866C27.9534 80.7304 29.1331 82.833 31.0557 82.8388L63.3514 82.936C65.282 82.9418 66.4731 80.8307 65.4701 79.1812Z" fill="#0150FF"/>
<circle cx="47.2215" cy="41.7988" r="3.09355" fill="#0150FF"/>
<path d="M12.2827 30.5734C15.3631 30.5734 18.3175 31.8681 20.4957 34.1727C22.6739 36.4773 23.8976 39.603 23.8976 42.8623C23.8976 46.1215 22.6739 49.2472 20.4957 51.5518C18.3175 53.8564 15.3631 55.1512 12.2827 55.1512C9.21234 55.1165 6.27702 53.8107 4.10585 51.5135C1.93468 49.2164 0.700449 46.1107 0.667696 42.8623C0.628793 41.2372 0.902633 39.6208 1.47257 38.1112C2.04251 36.6017 2.89663 35.2305 3.98304 34.0811C5.06944 32.9316 6.36542 32.0279 7.7922 31.4249C9.21898 30.8219 10.7468 30.5322 12.2827 30.5734Z" fill="#0150FF"/>
<path d="M82.1664 30.5725C84.4636 30.5725 86.7092 31.2932 88.6193 32.6435C90.5294 33.9939 92.0181 35.9131 92.8972 38.1586C93.7763 40.4041 94.0063 42.875 93.5582 45.2588C93.11 47.6426 92.0038 49.8323 90.3794 51.5509C88.755 53.2696 86.6854 54.44 84.4323 54.9142C82.1792 55.3883 79.8439 55.145 77.7215 54.2148C75.5991 53.2847 73.7851 51.7096 72.5089 49.6887C71.2326 47.6678 70.5514 45.2919 70.5514 42.8614C70.5258 41.2401 70.8088 39.63 71.3835 38.1268C71.9581 36.6237 72.8128 35.2582 73.8964 34.1116C74.9801 32.9651 76.2707 32.0609 77.6915 31.4529C79.1122 30.8449 80.634 30.5455 82.1664 30.5725Z" fill="#0150FF"/>
</svg>
