<svg width="105" height="115" viewBox="0 0 105 115" fill="none" xmlns="http://www.w3.org/2000/svg">
<path fill-rule="evenodd" clip-rule="evenodd" d="M8.54504 49.3328C9.02191 49.3328 9.48872 49.3759 9.94178 49.4584L38.0619 54.0073C42.0151 54.6468 45.6334 51.6316 47.6655 48.181C49.7228 44.6876 50.4248 40.1022 47.8425 36.977L41.3934 29.1722C41.2536 29.0236 41.1221 28.8648 41 28.6961L40.9022 28.5777C40.9 28.575 40.9007 28.5709 40.9038 28.5691C40.9067 28.5674 40.9075 28.5637 40.9057 28.5609C40.8436 28.4686 40.7842 28.3735 40.7277 28.2757C39.3971 25.971 40.1867 23.0239 42.4914 21.6933C44.7962 20.3627 47.7432 21.1523 49.0738 23.457C49.1305 23.5551 49.1833 23.6544 49.2322 23.7546C49.2335 23.7572 49.2366 23.7581 49.2391 23.7567C49.2417 23.7552 49.245 23.7564 49.2461 23.7592L49.2927 23.8831C49.3799 24.0756 49.4534 24.2714 49.5136 24.4693L53.0368 33.822C54.4886 37.6758 58.9804 39.3525 63.0986 39.3525C67.2358 39.3525 71.7532 37.6707 73.2093 33.7982L83.0143 7.72081C83.1804 7.20065 83.4044 6.69019 83.6886 6.19797C85.8271 2.49395 90.5634 1.22486 94.2674 3.36338C97.9714 5.5019 99.2405 10.2382 97.102 13.9422C96.736 14.5761 96.2939 15.1387 95.794 15.6251L78.3642 37.0046C75.8006 40.1491 76.5073 44.7217 78.5566 48.2232C80.6272 51.7614 84.3389 54.8831 88.3815 54.2018L98.1259 52.5595C98.3272 52.5118 98.5335 52.4768 98.7438 52.4553L98.8869 52.4312C98.8902 52.4306 98.8933 52.4332 98.8933 52.4365C98.8933 52.4397 98.8959 52.4422 98.8991 52.442C99.0115 52.4341 99.125 52.4301 99.2395 52.4301C101.901 52.4301 104.058 54.5875 104.058 57.2488C104.058 59.91 101.901 62.0674 99.2395 62.0674C99.1251 62.0674 99.0115 62.0634 98.8991 62.0556C98.8959 62.0553 98.8933 62.0578 98.8933 62.061C98.8933 62.0643 98.8902 62.0669 98.8869 62.0664L98.7348 62.0413C98.5425 62.0213 98.3536 61.99 98.1687 61.948L88.4061 60.3392C84.3376 59.6687 80.6114 62.8071 78.5107 66.3553C76.3885 69.9397 75.6222 74.6583 78.2658 77.8775L96.3679 99.9201C96.3709 99.9237 96.3699 99.9292 96.3658 99.9316C96.3619 99.9339 96.3608 99.9391 96.3634 99.9428C96.5204 100.159 96.6676 100.386 96.8043 100.623C98.9428 104.327 97.6737 109.063 93.9697 111.202C90.2657 113.34 85.5294 112.071 83.3909 108.367C83.2479 108.119 83.1202 107.867 83.0073 107.611C82.5411 106.554 82.2841 105.414 81.8736 104.334L72.8225 80.5211C71.4054 76.7926 67.0873 75.1481 63.0986 75.1481C58.9368 75.1481 54.3852 76.8425 52.9322 80.7425L49.5194 89.9027C49.4592 90.1046 49.385 90.3044 49.2967 90.5007L49.2474 90.6329C49.2463 90.636 49.2426 90.6373 49.2398 90.6356C49.2371 90.6341 49.2337 90.6351 49.2323 90.6379C49.1831 90.7388 49.13 90.8387 49.073 90.9374C47.7423 93.2421 44.7953 94.0317 42.4906 92.7011C40.1859 91.3705 39.3962 88.4234 40.7268 86.1187C40.7838 86.0201 40.8437 85.9242 40.9064 85.8311C40.9082 85.8285 40.9074 85.8249 40.9046 85.8234C40.9017 85.8217 40.901 85.8178 40.9032 85.8152L41.0004 85.6966C41.1148 85.5387 41.2374 85.3895 41.3673 85.2493L47.747 77.4709C50.3312 74.3201 49.6371 69.7281 47.5963 66.201C45.5234 62.6185 41.7892 59.4335 37.7058 60.1091L9.72348 64.7385C9.72184 64.7388 9.72034 64.7375 9.72034 64.7358C9.72034 64.7342 9.71887 64.7329 9.71724 64.7332C9.33497 64.7912 8.94351 64.8213 8.54503 64.8213C4.268 64.8213 0.800787 61.3541 0.800788 57.077C0.800788 52.8 4.26801 49.3328 8.54504 49.3328Z" fill="url(#paint0_radial_760_7898)"/>
<circle cx="8.54503" cy="57.0766" r="7.74425" transform="rotate(-90 8.54503 57.0766)" fill="url(#paint1_radial_760_7898)"/>
<circle cx="90.1549" cy="10.5789" r="7.74425" transform="rotate(30 90.1549 10.5789)" fill="url(#paint2_radial_760_7898)"/>
<circle cx="62.682" cy="57.5017" r="7.74425" transform="rotate(-150 62.682 57.5017)" fill="white"/>
<circle cx="90.1555" cy="104.197" r="7.74425" transform="rotate(150 90.1555 104.197)" fill="url(#paint3_radial_760_7898)"/>
<path fill-rule="evenodd" clip-rule="evenodd" d="M65.6907 96.0436C65.2175 93.2358 61.1782 93.257 60.7152 96.0665C60.6933 96.1633 60.6769 96.2623 60.6664 96.3629L60.6529 96.4447C60.6526 96.4464 60.654 96.448 60.6558 96.448C60.6574 96.448 60.6588 96.4495 60.6587 96.4511C60.6545 96.5109 60.6523 96.5713 60.6523 96.6321C60.6523 98.0423 61.7955 99.1854 63.2056 99.1854C64.6157 99.1854 65.7588 98.0423 65.7588 96.6321C65.7588 96.5713 65.7567 96.5109 65.7525 96.4511C65.7524 96.4495 65.7537 96.448 65.7554 96.448C65.7572 96.448 65.7586 96.4464 65.7583 96.4447L65.7453 96.3679C65.734 96.2575 65.7156 96.1493 65.6907 96.0436Z" fill="#116CFB"/>
<path fill-rule="evenodd" clip-rule="evenodd" d="M36.119 75.1853C38.2023 73.4639 36.3354 70.1038 33.8065 71.0565C33.6886 71.0908 33.5722 71.1345 33.4581 71.1877L33.4224 71.2012C33.4215 71.2015 33.4211 71.2026 33.4216 71.2034C33.4221 71.2041 33.4218 71.2051 33.421 71.2055C33.3698 71.2304 33.3192 71.2573 33.2692 71.2862C32.1077 71.9568 31.7097 73.4421 32.3803 74.6036C33.0509 75.7652 34.5362 76.1632 35.6978 75.4925C35.747 75.4641 35.7949 75.4342 35.8414 75.4029C35.8433 75.4016 35.8458 75.4022 35.847 75.4042C35.8482 75.4063 35.851 75.4068 35.8528 75.4052L35.9433 75.3305C36.0046 75.2845 36.0632 75.236 36.119 75.1853Z" fill="#116CFB"/>
<path fill-rule="evenodd" clip-rule="evenodd" d="M25.919 40.0244C28.3094 40.915 30.1136 37.7801 28.1413 36.1625C28.0716 36.0975 27.9972 36.0364 27.9183 35.9796L27.8676 35.938C27.8664 35.937 27.8647 35.9374 27.864 35.9386C27.8633 35.9398 27.8618 35.9402 27.8606 35.9394C27.8163 35.9095 27.7706 35.8809 27.7236 35.8538C26.6297 35.2222 25.2309 35.597 24.5994 36.6909C23.9678 37.7848 24.3426 39.1835 25.4365 39.8151C25.4834 39.8422 25.5309 39.8674 25.5788 39.8908C25.5803 39.8915 25.5808 39.8933 25.58 39.8947C25.5791 39.8961 25.5798 39.898 25.5814 39.8986L25.6519 39.9249C25.7397 39.964 25.8289 39.9971 25.919 40.0244Z" fill="#116CFB"/>
<path fill-rule="evenodd" clip-rule="evenodd" d="M60.9078 26.3491C61.3193 28.7904 64.8313 28.7724 65.2339 26.3296C65.2541 26.2412 65.2691 26.1508 65.2785 26.0587L65.2896 25.9916C65.2898 25.9901 65.2887 25.9887 65.2872 25.9887C65.2857 25.9887 65.2846 25.9875 65.2847 25.9861C65.2882 25.9349 65.29 25.8832 65.29 25.831C65.29 24.6041 64.2955 23.6095 63.0686 23.6095C61.8417 23.6095 60.8471 24.6041 60.8471 25.831C60.8471 25.8832 60.8489 25.9349 60.8524 25.9861C60.8525 25.9875 60.8514 25.9887 60.85 25.9887C60.8485 25.9887 60.8473 25.9901 60.8476 25.9916L60.8582 26.0548C60.8683 26.155 60.8849 26.2532 60.9078 26.3491Z" fill="#116CFB"/>
<path fill-rule="evenodd" clip-rule="evenodd" d="M97.0555 34.5236C94.8816 36.3198 96.9205 39.7661 99.5594 38.772C99.6476 38.7442 99.735 38.7114 99.8212 38.6734L99.9073 38.6409C99.9092 38.6402 99.9099 38.6381 99.909 38.6364C99.908 38.6348 99.9087 38.6328 99.9103 38.632C99.9633 38.6061 100.016 38.5782 100.068 38.5483C101.278 37.8493 101.693 36.3014 100.994 35.0908C100.295 33.8802 98.7471 33.4654 97.5365 34.1643C97.4845 34.1944 97.4339 34.226 97.3848 34.259C97.3836 34.2599 97.382 34.2595 97.3812 34.2582C97.3805 34.2569 97.3786 34.2565 97.3774 34.2575L97.327 34.2992C97.2303 34.3684 97.1397 34.4434 97.0555 34.5236Z" fill="#116CFB"/>
<path fill-rule="evenodd" clip-rule="evenodd" d="M90.2422 72.6229C88.2195 71.1836 85.7638 73.7168 87.2104 75.7342C87.2503 75.7962 87.2936 75.8567 87.3402 75.9153L87.3939 75.9901C87.3949 75.9916 87.3971 75.9918 87.3985 75.9905C87.3997 75.9892 87.4018 75.9893 87.4029 75.9906C87.4371 76.0299 87.4728 76.0682 87.5101 76.1056C88.3806 76.9761 89.792 76.9761 90.6625 76.1056C91.533 75.2351 91.533 73.8238 90.6625 72.9533C90.6249 72.9156 90.5862 72.8797 90.5467 72.8453C90.5458 72.8445 90.5458 72.8432 90.5466 72.8424C90.5475 72.8415 90.5473 72.84 90.5463 72.8393L90.5046 72.8096C90.4207 72.7403 90.333 72.678 90.2422 72.6229Z" fill="#116CFB"/>
<circle cx="44.9" cy="25.8651" r="4.81864" transform="rotate(150 44.9 25.8651)" fill="url(#paint4_radial_760_7898)"/>
<circle cx="44.7099" cy="88.852" r="4.81864" transform="rotate(-150 44.7099 88.852)" fill="url(#paint5_radial_760_7898)"/>
<circle cx="99.1321" cy="57.2618" r="4.81864" transform="rotate(-90 99.1321 57.2618)" fill="url(#paint6_radial_760_7898)"/>
<defs>
<radialGradient id="paint0_radial_760_7898" cx="0" cy="0" r="1" gradientUnits="userSpaceOnUse" gradientTransform="translate(65.5508 57.7205) rotate(60.3957) scale(62.8466 59.0396)">
<stop stop-color="#1485FF"/>
<stop offset="0.485" stop-color="#1432C6"/>
<stop offset="0.985" stop-color="#143294"/>
</radialGradient>
<radialGradient id="paint1_radial_760_7898" cx="0" cy="0" r="1" gradientUnits="userSpaceOnUse" gradientTransform="translate(9.23656 48.6671) rotate(90) scale(16.8416 16.3117)">
<stop stop-color="#143294"/>
<stop offset="1" stop-color="#1485FF"/>
</radialGradient>
<radialGradient id="paint2_radial_760_7898" cx="0" cy="0" r="1" gradientUnits="userSpaceOnUse" gradientTransform="translate(90.8464 2.16942) rotate(90) scale(16.8416 16.3117)">
<stop stop-color="#143294"/>
<stop offset="1" stop-color="#1485FF"/>
</radialGradient>
<radialGradient id="paint3_radial_760_7898" cx="0" cy="0" r="1" gradientUnits="userSpaceOnUse" gradientTransform="translate(90.8471 95.7873) rotate(90) scale(16.8416 16.3117)">
<stop stop-color="#143294"/>
<stop offset="1" stop-color="#1485FF"/>
</radialGradient>
<radialGradient id="paint4_radial_760_7898" cx="0" cy="0" r="1" gradientUnits="userSpaceOnUse" gradientTransform="translate(45.3303 20.6325) rotate(90) scale(10.4792 10.1495)">
<stop stop-color="#143294"/>
<stop offset="1" stop-color="#1485FF"/>
</radialGradient>
<radialGradient id="paint5_radial_760_7898" cx="0" cy="0" r="1" gradientUnits="userSpaceOnUse" gradientTransform="translate(45.1402 83.6194) rotate(90) scale(10.4792 10.1495)">
<stop stop-color="#143294"/>
<stop offset="1" stop-color="#1485FF"/>
</radialGradient>
<radialGradient id="paint6_radial_760_7898" cx="0" cy="0" r="1" gradientUnits="userSpaceOnUse" gradientTransform="translate(99.5624 52.0292) rotate(90) scale(10.4792 10.1495)">
<stop stop-color="#143294"/>
<stop offset="1" stop-color="#1485FF"/>
</radialGradient>
</defs>
</svg>
