<svg width="101" height="101" viewBox="0 0 101 101" fill="none" xmlns="http://www.w3.org/2000/svg">
<path fill-rule="evenodd" clip-rule="evenodd" d="M20.4902 32.6472C10.5048 32.6472 2.41016 40.7419 2.41016 50.7272C2.41016 60.7125 10.5048 68.8072 20.4901 68.8072H81.9566C91.9419 68.8072 100.037 60.7125 100.037 50.7272C100.037 40.7419 91.9419 32.6472 81.9566 32.6472H20.4902ZM51.2227 42.2396C49.1412 42.2396 47.4539 43.9272 47.4539 46.0088V55.4448C47.4539 57.5265 49.1412 59.2141 51.2227 59.2141C53.3041 59.2141 54.9915 57.5265 54.9915 55.4448V46.0088C54.9915 43.9272 53.3041 42.2396 51.2227 42.2396ZM24.6067 59.0062C29.1782 59.0062 32.8842 55.2997 32.8842 50.7276C32.8842 46.1555 29.1782 42.4491 24.6067 42.4491C20.0351 42.4491 16.3291 46.1555 16.3291 50.7276C16.3291 55.2997 20.0351 59.0062 24.6067 59.0062ZM86.1157 50.7276C86.1157 55.2997 82.4097 59.0062 77.8381 59.0062C73.2665 59.0062 69.5605 55.2997 69.5605 50.7276C69.5605 46.1555 73.2665 42.4491 77.8381 42.4491C82.4097 42.4491 86.1157 46.1555 86.1157 50.7276Z" fill="url(#paint0_linear_786_60)"/>
<path fill-rule="evenodd" clip-rule="evenodd" d="M20.4902 32.6472C10.5048 32.6472 2.41016 40.7419 2.41016 50.7272C2.41016 60.7125 10.5048 68.8072 20.4901 68.8072H81.9566C91.9419 68.8072 100.037 60.7125 100.037 50.7272C100.037 40.7419 91.9419 32.6472 81.9566 32.6472H20.4902ZM51.2227 42.2396C49.1412 42.2396 47.4539 43.9272 47.4539 46.0088V55.4448C47.4539 57.5265 49.1412 59.2141 51.2227 59.2141C53.3041 59.2141 54.9915 57.5265 54.9915 55.4448V46.0088C54.9915 43.9272 53.3041 42.2396 51.2227 42.2396ZM24.6067 59.0062C29.1782 59.0062 32.8842 55.2997 32.8842 50.7276C32.8842 46.1555 29.1782 42.4491 24.6067 42.4491C20.0351 42.4491 16.3291 46.1555 16.3291 50.7276C16.3291 55.2997 20.0351 59.0062 24.6067 59.0062ZM86.1157 50.7276C86.1157 55.2997 82.4097 59.0062 77.8381 59.0062C73.2665 59.0062 69.5605 55.2997 69.5605 50.7276C69.5605 46.1555 73.2665 42.4491 77.8381 42.4491C82.4097 42.4491 86.1157 46.1555 86.1157 50.7276Z" fill="#0150FF"/>
<defs>
<linearGradient id="paint0_linear_786_60" x1="10.7079" y1="62.6204" x2="26.5341" y2="20.4022" gradientUnits="userSpaceOnUse">
<stop stop-color="#1759EA"/>
<stop offset="0.934043" stop-color="#008BFF"/>
</linearGradient>
</defs>
</svg>
