<svg width="109" height="100" viewBox="0 0 109 100" fill="none" xmlns="http://www.w3.org/2000/svg">
<path d="M70.1172 8.69521C71.4585 11.0183 70.6625 13.9888 68.3395 15.33L48.3315 26.8816C46.0085 28.2228 43.038 27.4269 41.6967 25.1038C40.3555 22.7807 41.1515 19.8102 43.4745 18.469L63.4825 6.91742C65.8055 5.5762 68.776 6.37214 70.1172 8.69521Z" fill="#0150FF"/>
<path d="M70.1172 91.218C71.4585 88.8949 70.6625 85.9244 68.3394 84.5832L48.3315 73.0316C46.0085 71.6904 43.038 72.4863 41.6967 74.8094C40.3555 77.1324 41.1515 80.1029 43.4745 81.4441L63.4825 92.9957C65.8055 94.337 68.776 93.541 70.1172 91.218Z" fill="#0150FF"/>
<path d="M48.7421 1.52706C50.6389 3.42383 50.6389 6.49911 48.7421 8.39588L42.9273 14.2107C41.0306 16.1074 37.9553 16.1074 36.0585 14.2107C34.1617 12.3139 34.1617 9.23859 36.0585 7.34181L41.8733 1.52706C43.77 -0.369718 46.8453 -0.369718 48.7421 1.52706Z" fill="#0150FF"/>
<path d="M48.7421 98.3858C50.6389 96.489 50.6389 93.4137 48.7421 91.5169L42.9273 85.7022C41.0305 83.8054 37.9553 83.8054 36.0585 85.7022C34.1617 87.5989 34.1617 90.6742 36.0585 92.571L41.8733 98.3858C43.77 100.283 46.8453 100.283 48.7421 98.3858Z" fill="#0150FF"/>
<path d="M87.7383 30.863C90.3294 30.1687 91.867 27.5055 91.1728 24.9144C90.4785 22.3234 87.8152 20.7857 85.2242 21.48L48.0251 31.4475C45.434 32.1417 43.8964 34.805 44.5907 37.3961C45.2849 39.9871 47.9482 41.5247 50.5392 40.8305L87.7383 30.863Z" fill="#0150FF"/>
<path d="M87.7383 69.0502C90.3294 69.7444 91.867 72.4077 91.1728 74.9987C90.4785 77.5898 87.8152 79.1274 85.2242 78.4332L48.0251 68.4657C45.434 67.7714 43.8964 65.1081 44.5907 62.5171C45.2849 59.926 47.9482 58.3884 50.5392 59.0827L87.7383 69.0502Z" fill="#0150FF"/>
<path d="M104.087 45.5342C106.443 45.5342 108.354 47.7087 108.354 50.3912C108.354 53.0736 106.443 55.2482 104.087 55.2482L50.3521 55.2482C47.9957 55.2482 46.0856 53.0736 46.0856 50.3912C46.0856 47.7087 47.9957 45.5342 50.3521 45.5342L104.087 45.5342Z" fill="#0150FF"/>
<path d="M18.4636 50.1548C18.4636 55.228 14.351 59.3406 9.27782 59.3406C4.20465 59.3406 0.0920321 55.228 0.0920321 50.1548C0.0920321 45.0816 4.20465 40.969 9.27782 40.969C14.351 40.969 18.4636 45.0816 18.4636 50.1548Z" fill="#0150FF"/>
</svg>
