<svg viewBox="0 0 50 64" fill="none" xmlns="http://www.w3.org/2000/svg">
<path d="M49.5889 24.5426C49.5887 26.0774 48.3447 27.3213 46.8099 27.3215C45.2749 27.3215 44.0296 26.0775 44.0294 24.5426C44.0294 24.01 44.0087 23.4852 43.9671 22.9691H41.8914C40.6292 22.9691 39.5247 22.1187 39.203 20.8982C38.8447 19.5393 38.3167 18.2681 37.6388 17.1181C36.9955 16.0263 37.1732 14.638 38.0692 13.7418L39.5304 12.2791C38.853 11.4795 38.1094 10.7359 37.3098 10.0584L35.8486 11.5212C34.9557 12.414 33.5724 12.5925 32.4817 11.9563C31.29 11.2611 30.035 10.7284 28.7141 10.3922C27.4824 10.0786 26.6198 8.96847 26.6198 7.69743V5.66859C26.0224 5.60412 25.4133 5.56874 24.7937 5.56099C24.1743 5.56876 23.5662 5.60415 22.9691 5.66859V7.69743C22.9691 8.96847 22.1065 10.0786 20.8748 10.3922C19.5539 10.7284 18.2989 11.2611 17.1071 11.9563C16.0165 12.5925 14.6331 12.414 13.7403 11.5212L12.2791 10.0584C11.4795 10.7358 10.7359 11.4795 10.0584 12.2791L11.5196 13.7418C12.4157 14.638 12.5921 16.0263 11.9485 17.1181C11.2707 18.268 10.7442 19.5394 10.3859 20.8982C10.0641 22.1187 8.95965 22.9691 7.69743 22.9691L5.62181 22.9691C5.58019 23.4852 5.55943 24.01 5.55943 24.5426C5.55924 26.0775 4.31394 27.3215 2.77894 27.3215C1.24409 27.3213 0.000194496 26.0774 0 24.5426C7.32309e-08 22.8673 0.163084 21.2279 0.492786 19.6288C0.759063 18.3373 1.89547 17.4099 3.21402 17.4097H5.67171C5.82117 17.0137 5.98217 16.623 6.15514 16.2385L4.42571 14.5091C3.49224 13.5752 3.34536 12.113 4.07328 11.0113C5.89023 8.26139 8.26135 5.89019 11.0113 4.07328C12.1131 3.34526 13.5753 3.49343 14.5091 4.42727L16.237 6.15514C16.6208 5.98107 17.0118 5.81803 17.4097 5.66703V3.21558C17.4097 1.89681 18.3372 0.759095 19.6288 0.492785C21.2278 0.163133 22.8674 -7.32248e-08 24.5426 0C24.6264 2.18847e-06 24.7101 0.00074252 24.7937 0.00155946C24.8775 0.000737475 24.9622 1.76727e-06 25.0463 2.20175e-08C26.7215 9.52444e-08 28.361 0.163115 29.9601 0.492786C31.2517 0.759095 32.1792 1.89681 32.1792 3.21558V5.66703C32.5771 5.81801 32.9681 5.98109 33.3519 6.15514L35.0798 4.42727C36.0136 3.49343 37.4757 3.34526 38.5776 4.07328C41.3275 5.89019 43.6987 8.26139 45.5156 11.0113C46.2436 12.1131 46.0954 13.5753 45.1616 14.5091L43.4337 16.2385C43.6067 16.623 43.7677 17.0137 43.9172 17.4097H46.3749C47.6934 17.41 48.8298 18.3374 49.0961 19.6288C49.4258 21.2279 49.5889 22.8673 49.5889 24.5426Z" fill="url(#paint0_radial_1193_932)"/>
<path d="M5.73253 47.4446C5.73253 48.9945 4.47538 50.2516 2.92552 50.2516C1.37584 50.2514 0.120076 48.9944 0.120076 47.4446L0.120077 35.3636C0.120077 33.8139 1.37584 32.5568 2.92552 32.5566C4.47538 32.5566 5.73253 33.8137 5.73253 35.3636L5.73253 47.4446Z" fill="url(#paint1_radial_1193_932)"/>
<path d="M16.7032 27.1843C16.7032 28.7341 15.4461 30.0053 13.8962 30.0053C12.3465 30.0052 11.0908 28.7341 11.0908 27.1843C11.091 25.6347 12.3466 24.3634 13.8962 24.3632C15.446 24.3632 16.7031 25.6346 16.7032 27.1843Z" fill="url(#paint2_radial_1193_932)"/>
<path d="M16.7032 55.638C16.7031 57.1877 15.446 58.4434 13.8962 58.4434C12.3466 58.4433 11.091 57.1876 11.0908 55.638L11.0908 35.3636C11.0908 33.8138 12.3465 32.5567 13.8962 32.5566C15.4461 32.5566 16.7032 33.8137 16.7032 35.3636L16.7032 55.638Z" fill="url(#paint3_radial_1193_932)"/>
<path d="M27.674 42.4333C27.674 43.9832 26.4168 45.2403 24.867 45.2403C23.3174 45.24 22.0615 43.983 22.0615 42.4333L22.0615 35.3636C22.0615 33.8139 23.3174 32.5569 24.867 32.5566C26.4168 32.5566 27.674 33.8137 27.674 35.3636V42.4333Z" fill="url(#paint4_radial_1193_932)"/>
<path d="M27.674 61.0695C27.6736 62.619 26.4166 63.875 24.867 63.875C23.3176 63.8746 22.0619 62.6188 22.0615 61.0695L22.0615 51.2411C22.0615 49.6915 23.3174 48.4344 24.867 48.4341C26.4168 48.4341 27.674 49.6912 27.674 51.2411L27.674 61.0695Z" fill="url(#paint5_radial_1193_932)"/>
<path d="M38.6447 27.1843C38.6447 28.7341 37.3875 30.0053 35.8377 30.0053C34.2881 30.005 33.0322 28.7339 33.0322 27.1843C33.0324 25.6348 34.2882 24.3636 35.8377 24.3632C37.3874 24.3632 38.6445 25.6346 38.6447 27.1843Z" fill="url(#paint6_radial_1193_932)"/>
<path d="M38.6447 55.638C38.6445 57.1876 37.3874 58.4434 35.8377 58.4434C34.2882 58.443 33.0324 57.1874 33.0322 55.638V35.3636C33.0322 33.814 34.2881 32.5569 35.8377 32.5566C37.3875 32.5566 38.6447 33.8137 38.6447 35.3636V55.638Z" fill="url(#paint7_radial_1193_932)"/>
<path d="M49.6154 47.4446C49.6154 48.9945 48.3582 50.2516 46.8084 50.2516C45.2589 50.2512 44.0029 48.9942 44.0029 47.4446V35.3636C44.0029 33.814 45.2589 32.557 46.8084 32.5566C48.3582 32.5566 49.6154 33.8137 49.6154 35.3636V47.4446Z" fill="url(#paint8_radial_1193_932)"/>
<defs>
<radialGradient id="paint0_radial_1193_932" cx="0" cy="0" r="1" gradientUnits="userSpaceOnUse" gradientTransform="translate(24.8077 26.8289) rotate(90) scale(30.1752 43.1852)">
<stop stop-color="#008CFF"/>
<stop offset="1" stop-color="#0040FF"/>
</radialGradient>
<radialGradient id="paint1_radial_1193_932" cx="0" cy="0" r="1" gradientUnits="userSpaceOnUse" gradientTransform="translate(24.8077 26.8289) rotate(90) scale(30.1752 43.1852)">
<stop stop-color="#008CFF"/>
<stop offset="1" stop-color="#0040FF"/>
</radialGradient>
<radialGradient id="paint2_radial_1193_932" cx="0" cy="0" r="1" gradientUnits="userSpaceOnUse" gradientTransform="translate(24.8077 26.8289) rotate(90) scale(30.1752 43.1852)">
<stop stop-color="#008CFF"/>
<stop offset="1" stop-color="#0040FF"/>
</radialGradient>
<radialGradient id="paint3_radial_1193_932" cx="0" cy="0" r="1" gradientUnits="userSpaceOnUse" gradientTransform="translate(24.8077 26.8289) rotate(90) scale(30.1752 43.1852)">
<stop stop-color="#008CFF"/>
<stop offset="1" stop-color="#0040FF"/>
</radialGradient>
<radialGradient id="paint4_radial_1193_932" cx="0" cy="0" r="1" gradientUnits="userSpaceOnUse" gradientTransform="translate(24.8077 26.8289) rotate(90) scale(30.1752 43.1852)">
<stop stop-color="#008CFF"/>
<stop offset="1" stop-color="#0040FF"/>
</radialGradient>
<radialGradient id="paint5_radial_1193_932" cx="0" cy="0" r="1" gradientUnits="userSpaceOnUse" gradientTransform="translate(24.8077 26.8289) rotate(90) scale(30.1752 43.1852)">
<stop stop-color="#008CFF"/>
<stop offset="1" stop-color="#0040FF"/>
</radialGradient>
<radialGradient id="paint6_radial_1193_932" cx="0" cy="0" r="1" gradientUnits="userSpaceOnUse" gradientTransform="translate(24.8077 26.8289) rotate(90) scale(30.1752 43.1852)">
<stop stop-color="#008CFF"/>
<stop offset="1" stop-color="#0040FF"/>
</radialGradient>
<radialGradient id="paint7_radial_1193_932" cx="0" cy="0" r="1" gradientUnits="userSpaceOnUse" gradientTransform="translate(24.8077 26.8289) rotate(90) scale(30.1752 43.1852)">
<stop stop-color="#008CFF"/>
<stop offset="1" stop-color="#0040FF"/>
</radialGradient>
<radialGradient id="paint8_radial_1193_932" cx="0" cy="0" r="1" gradientUnits="userSpaceOnUse" gradientTransform="translate(24.8077 26.8289) rotate(90) scale(30.1752 43.1852)">
<stop stop-color="#008CFF"/>
<stop offset="1" stop-color="#0040FF"/>
</radialGradient>
</defs>
</svg>
