<?xml version="1.0" encoding="utf-8"?>
<!-- Generator: Adobe Illustrator 23.0.2, SVG Export Plug-In . SVG Version: 6.00 Build 0)  -->
<svg version="1.1" id="Layer_1" xmlns="http://www.w3.org/2000/svg" xmlns:xlink="http://www.w3.org/1999/xlink" x="0px" y="0px"
	 width="488.6px" height="240.8px" viewBox="0 0 488.6 240.8" style="enable-background:new 0 0 488.6 240.8;" xml:space="preserve"
	>
<style type="text/css">
	.st0{fill:#3C73B9;}
	.st1{fill:#3C89C9;}
	.st2{fill:#2F9ED9;}
	.st3{fill:#0CAEE0;}
	.st4{fill:#1AB8D6;}
	.st5{fill:#39BAC7;}
	.st6{fill:#49BABA;}
	.st7{fill:#59BCB0;}
	.st8{fill:#62BDA3;}
	.st9{fill:#63BC9E;}
	.st10{fill-rule:evenodd;clip-rule:evenodd;fill:#49BABA;}
</style>
<title>imandra_logo_rass_v</title>
<g id="Page-1">
	<g id="imandra.ai-desktop">
		<g id="Group-2">
			<g id="Imandra-gradient-logo-blue">
				<g id="Group-2-2">
					<path id="Fill-6" class="st0" d="M56.2,0.3C24.8,0.6-0.6,26.3-0.3,57.9c0.3,31.4,26,56.8,57.6,56.5c31.5-0.3,56.8-26,56.5-57.6
						c-0.4-31-25.5-56.2-56.6-56.5H56.2z"/>
					<path id="Fill-12" class="st1" d="M213.7,27.3v60.3c0,15.7,9.7,28.9,26.8,28.9s26.8-12.5,26.8-28.9V27.3
						c0-14.8-12-26.8-26.8-26.8C225.7,0.5,213.7,12.5,213.7,27.3"/>
					<path id="Fill-9" class="st2" d="M423.4,0.3c-31.5,0.2-57,25.9-56.8,57.6c0.2,31.6,25.9,57,57.6,56.8l0,0
						c31.5,0.1,57.3-25.5,57.4-57s-25.5-57.3-57-57.4L423.4,0.3z"/>
					<polygon id="Fill-15" class="st3" points="1.3,200.4 5.6,200.4 5.6,164.9 1.3,164.9 					"/>
					<polygon id="Fill-17" class="st4" points="84.2,164.9 71.8,183 59.3,164.9 54,164.9 54,200.4 58.3,200.4 58.3,171.2 
						71.2,189.2 72.1,189.2 85.2,171.5 85.2,200.4 89.6,200.4 89.6,164.9 					"/>
					<path id="Fill-20" class="st5" d="M150.1,164.9l-15.8,35.4h4.9l3.2-7.9h20.4l3.6,7.9h4.7l-15.8-35.4H150.1z M152.7,169.5
						l8.2,19.1h-16.8L152.7,169.5z"/>
					<polygon id="Fill-23" class="st6" points="244.1,164.9 244.1,191.9 222.4,164.9 219.5,164.9 219.5,200.4 223.7,200.4 
						223.7,173.5 245.5,200.4 249.1,200.4 249.1,164.9 					"/>
					<path id="Fill-26" class="st7" d="M295.9,164.9v35.4h12.9c12.5,0,17.8-8.9,17.8-18.1c0.5-9.1-6.6-17-15.8-17.5l0,0l0,0
						c-0.6-0.1-1.3-0.1-2,0L295.9,164.9z M300,169.2h8.6c6.9-0.5,13.1,4.7,13.6,11.7l0,0v0.1c0,0.4,0,0.9,0,1.4
						c0.5,7.1-4.8,13.3-11.9,13.8c-0.5,0-1.1,0-1.6,0H300V169.2z"/>
					<path id="Fill-29" class="st8" d="M370.6,164.9v4h16.1c4,0.1,7.3,3.4,7.2,7.4v0.2c0.1,3.9-3,7.1-6.9,7.3c-0.3,0-0.7,0-1,0
						h-11.5v-8.4l-3.9-3.2v28.3h4.2v-13h8.5l11.2,12.5h5.5l-11.8-13.2c5.6,0,10.1-4.4,10.2-10v-0.8c0.1-6.1-4.8-11.1-10.8-11.2l0,0
						h-1L370.6,164.9z"/>
					<path id="Fill-32" class="st9" d="M454.6,164.9l-15.8,35.4h4.9l3.2-7.9h20.5l3.6,7.9h4.6l-16.1-35.4H454.6z M457.2,169.5
						l8.2,19.1h-16.7L457.2,169.5z"/>
				</g>
			</g>
		</g>
	</g>
</g>
<path id="Fill-1" class="st10" d="M465.7,224.3v6.5h9.8v1.2h-9.8v6.5h10.5v1.2h-11.8V223h11.5v1.2L465.7,224.3z M452.9,236.6
	l0.9,0.8c-1.6,1.6-3.8,2.5-6.1,2.5c-5.6,0-8.5-3.9-8.6-8.4s2.9-8.6,8.6-8.6c2.3,0,4.5,0.9,6.1,2.5l-0.9,0.8
	c-1.4-1.4-3.2-2.1-5.2-2.1c-4.9,0-7.4,3.4-7.3,7.4s2.5,7.3,7.3,7.3C449.6,238.8,451.5,238,452.9,236.6L452.9,236.6z M426.7,239.8
	h1.2v-16.7h-1.3L426.7,239.8z M414.7,223.1h1.4l-6.9,16.7h-1.4l-6.9-16.7h1.4l6.2,15.2L414.7,223.1z M379.7,224.3v7.9h5.9
	c2.9,0,4.2-1.6,4.2-4c0.1-2.1-1.5-3.9-3.7-4l0,0L379.7,224.3L379.7,224.3z M385.7,233.4l5.9,6.4H390l-5.8-6.3h-4.5v6.3h-1.3v-16.6
	h7.3c2.8-0.2,5.3,2,5.5,4.8c0,0.1,0,0.3,0,0.4C391.2,231,389.4,233.4,385.7,233.4L385.7,233.4z M356.6,224.3v6.5h9.8v1.2h-9.8v6.5
	h10.5v1.2h-11.8v-16.6h11.6v1.2L356.6,224.3z M343.7,225.7l-1,0.6c-1.2-1.9-3.2-2.2-5-2.3s-5,0.7-5,3.4c0,2.1,2.3,2.6,5.1,3.1
	c3.2,0.6,6.5,1.2,6.5,4.8c0,3.8-3.8,4.7-6.6,4.7c-2.6,0-5.5-1.1-6.8-3.6l1.1-0.6c1,2,3.6,3,5.7,3s5.3-0.6,5.3-3.5
	c0-2.5-2.7-3-5.5-3.6c-3-0.6-6.2-1.2-6.2-4.3c-0.1-3.5,3.6-4.6,6.3-4.6C340.1,222.9,342.1,223.2,343.7,225.7L343.7,225.7z
	 M294,234.5h8.9l-4.5-10.1L294,234.5z M306.7,239.7h-1.4l-1.8-4.1h-9.9l-1.8,4.1h-1.4l7.5-16.6h1.4L306.7,239.7z M265.5,225.7
	l-1,0.6c-1.2-1.9-3.2-2.2-5-2.3s-5,0.7-5,3.4c0,2.1,2.3,2.6,5.1,3.1c3.2,0.6,6.5,1.2,6.5,4.8c0,3.8-3.8,4.7-6.6,4.7
	c-2.6,0-5.5-1.1-6.8-3.6l1.1-0.6c1,2,3.6,3,5.7,3s5.3-0.6,5.3-3.5c0-2.5-2.7-3-5.5-3.6c-3-0.6-6.2-1.2-6.2-4.3
	c-0.1-3.5,3.6-4.6,6.3-4.6C261.8,222.9,263.9,223.2,265.5,225.7L265.5,225.7z M230.7,234.5h8.9l-4.4-10.1L230.7,234.5z M243.3,239.7
	h-1.4l-1.8-4.1h-9.9l-1.8,4.1H227l7.5-16.7h1.4L243.3,239.7z M201.7,225.4l-0.7,0.8c-1.4-1.4-3.4-2.1-5.4-2.1
	c-3.9-0.2-7.2,2.8-7.4,6.6c0,0.3,0,0.5,0,0.8c0,3.9,2.5,7.3,7.4,7.3c1.9,0,3.7-0.7,5.1-1.9v-4.7h-5.8v-1.1h7v6.2
	c-1.6,1.7-3.9,2.7-6.3,2.7c-5.7,0-8.6-3.9-8.6-8.5c0-5.2,3.5-8.6,8.6-8.6C197.9,222.9,200.1,223.8,201.7,225.4L201.7,225.4z
	 M162.7,223.1h0.5l11.2,13.8v-13.8h1.3v16.7h-0.5L164,226v13.8h-1.3V223.1z M149.4,239.7h1.3v-16.6h-1.3V239.7z M124.2,223.1h0.5
	l11.2,13.8v-13.8h1.3v16.7h-0.5L125.5,226v13.8h-1.3V223.1z M104.4,224c-4.8,0-7.1,3.5-7.1,7.4c0,3.8,2.4,7.4,7.1,7.4
	c4.8,0,7.1-3.7,7.1-7.4S109.2,224,104.4,224L104.4,224z M104.4,222.8c5.6,0,8.4,4.1,8.4,8.6s-2.8,8.6-8.4,8.6s-8.4-4.2-8.4-8.6
	S98.8,222.8,104.4,222.8L104.4,222.8z M85.1,225.7l-1.1,0.6c-1.2-1.9-3.2-2.2-5-2.3s-5,0.7-5,3.4c0,2.1,2.3,2.6,5.1,3.1
	c3.2,0.6,6.6,1.2,6.6,4.8c0,3.8-3.8,4.7-6.6,4.7c-2.6,0-5.6-1.1-6.8-3.6l1.1-0.6c1,2,3.6,3,5.7,3s5.3-0.6,5.3-3.5
	c0-2.5-2.7-3-5.5-3.6c-3-0.6-6.2-1.2-6.2-4.3c-0.1-3.5,3.6-4.6,6.3-4.6C81.3,222.9,83.4,223.2,85.1,225.7z M50.3,234.5h8.9
	l-4.5-10.1L50.3,234.5z M62.9,239.8h-1.3l-1.8-4.1h-9.9l-1.8,4.1h-1.4l7.5-16.7h1.4L62.9,239.8z M26.6,224.3v6.5h9.8v1.2h-9.8v6.6
	h10.5v1.2H25.3v-16.7h11.5v1.2H26.6z M2.8,224.3v7.9h5.9c2.9,0,4.2-1.6,4.2-4c0.1-2.1-1.5-3.9-3.7-4l0,0L2.8,224.3L2.8,224.3z
	 M8.9,233.4l5.8,6.4H13l-5.8-6.3H2.7v6.3H1.4v-16.7h7.3c2.8-0.2,5.3,2,5.5,4.8c0,0.1,0,0.2,0,0.4C14.3,231,12.5,233.4,8.9,233.4z"/>
<path class="st6" d="M487.9,225.2c0.1,1.9-1.4,3.5-3.3,3.5c-1.9,0.1-3.5-1.4-3.5-3.3c-0.1-1.9,1.4-3.5,3.3-3.5h0.1
	C486.3,221.8,487.9,223.3,487.9,225.2C487.9,225.1,487.9,225.1,487.9,225.2z M481.9,225.2c0,1.4,1.1,2.6,2.5,2.7h0.1
	c1.5-0.1,2.6-1.4,2.5-2.8c-0.1-1.4-1.2-2.4-2.5-2.5C483.1,222.5,481.9,223.6,481.9,225.2C481.9,225.1,481.9,225.1,481.9,225.2z
	 M484,226.9h-0.8v-3.4c0.4-0.1,0.9-0.1,1.3-0.1s0.8,0.1,1.2,0.2c0.2,0.2,0.3,0.4,0.3,0.7c0,0.4-0.3,0.7-0.7,0.8l0,0
	c0.3,0.1,0.6,0.4,0.6,0.8c0,0.3,0.1,0.6,0.2,0.8h-0.8c-0.1-0.3-0.2-0.5-0.3-0.8c-0.1-0.4-0.3-0.5-0.7-0.5h-0.4L484,226.9z M484,225
	h0.4c0.4,0,0.8-0.1,0.8-0.5s-0.2-0.5-0.7-0.5c-0.1,0-0.3,0-0.4,0L484,225L484,225z"/>
</svg>
