<svg viewBox="0 0 378 32" fill="none" xmlns="http://www.w3.org/2000/svg">
<path d="M159.681 3.34717H165.761V28.4597H159.681V3.34717Z" fill="#1396E6"/>
<path d="M199.81 3.34717H205.259V28.4597H199.216V12.7464L191.579 21.787H190.393L182.681 12.7106V28.4597H176.638V3.34717H182.088L190.949 14.038L199.81 3.34717Z" fill="#179FE1"/>
<path d="M236.136 28.4597L234.208 23.9395H221.417L219.489 28.4597H213.001L224.643 3.34717H231.131L242.698 28.4597H236.136ZM227.868 8.97956L223.605 18.8811H232.058L227.868 8.97956Z" fill="#1CAAD9"/>
<path d="M268.483 3.34717H274.526V28.4597H269.076L257.323 12.9258L257.398 19.7062V28.4597H251.354V3.34717H256.804L268.557 18.9528L268.483 12.2442V3.34717Z" fill="#1FB2D5"/>
<path d="M296.005 3.34717C298.674 3.34717 301.01 3.86138 303.012 4.8898C305.038 5.91822 306.595 7.3891 307.683 9.30244C308.795 11.1919 309.351 13.3922 309.351 15.9035C309.351 18.4147 308.795 20.627 307.683 22.5403C306.595 24.4298 305.038 25.8887 303.012 26.9171C301.01 27.9455 298.674 28.4597 296.005 28.4597H285.364V3.34717H296.005ZM296.005 23.3296C298.18 23.3296 299.934 22.6599 301.269 21.3206C302.604 19.9813 303.271 18.1755 303.271 15.9035C303.271 14.3967 302.962 13.0932 302.344 11.9931C301.751 10.869 300.898 10.008 299.786 9.41006C298.699 8.78823 297.438 8.47731 296.005 8.47731H291.444V23.3296H296.005Z" fill="#23BCCF"/>
<path d="M324.766 20.1726H328.288L334.887 28.4597H342.117L334.776 19.6703C336.655 19.0963 338.101 18.1277 339.114 16.7645C340.152 15.4012 340.671 13.7629 340.671 11.8496C340.671 10.1754 340.288 8.69256 339.522 7.40106C338.756 6.10955 337.668 5.11701 336.259 4.42342C334.85 3.70592 333.207 3.34717 331.328 3.34717H318.686V8.36968H330.624C331.909 8.36968 332.898 8.6806 333.59 9.30244C334.307 9.92427 334.665 10.7972 334.665 11.9213C334.665 13.0454 334.319 13.9184 333.627 14.5402C332.935 15.1381 331.934 15.4371 330.624 15.4371H326.386H324.728L324.729 12.6541L318.686 10.6538V28.4597H324.766V20.1726Z" fill="#28C6C8"/>
<path d="M370.762 28.4597L368.834 23.9395H356.043L354.115 28.4597H347.627L359.269 3.34717H365.757L377.324 28.4597H370.762ZM362.494 8.97956L358.231 18.8811H366.684L362.494 8.97956Z" fill="#2CD0C2"/>
<circle cx="15.3997" cy="15.7542" r="15.3401" fill="url(#paint0_linear_1934_627)"/>
<path d="M57.7397 7.01172C57.7397 3.15435 60.8668 0.0273438 64.7241 0.0273438C68.5815 0.0273438 71.7085 3.15436 71.7085 7.01172V24.4966C71.7085 28.3539 68.5815 31.481 64.7241 31.481C60.8668 31.481 57.7397 28.3539 57.7397 24.4966V7.01172Z" fill="url(#paint1_linear_1934_627)"/>
<circle cx="114.049" cy="15.7542" r="15.3401" fill="url(#paint2_linear_1934_627)"/>
<defs>
<linearGradient id="paint0_linear_1934_627" x1="-7.80814" y1="31.0942" x2="-9.00938" y2="-6.68407" gradientUnits="userSpaceOnUse">
<stop stop-color="#001AFF"/>
<stop offset="1" stop-color="#00E0FF"/>
</linearGradient>
<linearGradient id="paint1_linear_1934_627" x1="54.1576" y1="31.4809" x2="51.3959" y2="-7.09116" gradientUnits="userSpaceOnUse">
<stop stop-color="#001AFF"/>
<stop offset="1" stop-color="#00E0FF"/>
</linearGradient>
<linearGradient id="paint2_linear_1934_627" x1="90.8408" y1="31.0942" x2="89.6396" y2="-6.68407" gradientUnits="userSpaceOnUse">
<stop stop-color="#001AFF"/>
<stop offset="1" stop-color="#00E0FF"/>
</linearGradient>
</defs>
</svg>
