<svg id="Layer_1" data-name="Layer 1" xmlns="http://www.w3.org/2000/svg" viewBox="0 0 1366 432"><defs><style>.cls-1,.cls-37{fill:none;}.cls-1,.cls-3{stroke:#0c80f4;}.cls-1,.cls-3,.cls-37{stroke-miterlimit:10;stroke-width:3px;}.cls-2{fill:#0c80f4;}.cls-3,.cls-5{fill:#fff;}.cls-3{stroke-dasharray:3 3;}.cls-4{fill:#2b7ad8;}.cls-5{font-size:22px;font-family:MerriweatherSans-Regular, Merriweather Sans;}.cls-6{letter-spacing:-0.02em;}.cls-7{letter-spacing:-0.01em;}.cls-8{letter-spacing:0em;}.cls-9{letter-spacing:-0.01em;}.cls-10{letter-spacing:-0.02em;}.cls-11{letter-spacing:-0.01em;}.cls-12{letter-spacing:-0.01em;}.cls-13{letter-spacing:-0.02em;}.cls-14{letter-spacing:0em;}.cls-15{letter-spacing:-0.02em;}.cls-16{letter-spacing:-0.01em;}.cls-17{letter-spacing:-0.01em;}.cls-18{letter-spacing:-0.02em;}.cls-19{letter-spacing:0.01em;}.cls-20{letter-spacing:-0.02em;}.cls-21{letter-spacing:-0.02em;}.cls-22{letter-spacing:-0.01em;}.cls-23{letter-spacing:-0.02em;}.cls-24{letter-spacing:-0.01em;}.cls-25{letter-spacing:-0.02em;}.cls-26{letter-spacing:-0.01em;}.cls-27{letter-spacing:-0.01em;}.cls-28{letter-spacing:-0.02em;}.cls-29{letter-spacing:0em;}.cls-30{letter-spacing:-0.01em;}.cls-31{fill:#27d798;}.cls-32{letter-spacing:-0.03em;}.cls-33{letter-spacing:-0.02em;}.cls-34{letter-spacing:-0.02em;}.cls-35,.cls-36{fill:#0f6df7;}.cls-35{opacity:0.22;}.cls-36{opacity:0.11;}.cls-37{stroke:#2970d6;}</style></defs><line class="cls-1" x1="368.61" y1="108.5" x2="423.39" y2="108.5"/><polygon class="cls-2" points="370.36 114.48 360 108.5 370.36 102.52 370.36 114.48"/><polygon class="cls-2" points="421.64 114.48 432 108.5 421.64 102.52 421.64 114.48"/><line class="cls-1" x1="584.61" y1="107.5" x2="639.39" y2="107.5"/><polygon class="cls-2" points="586.36 113.48 576 107.5 586.36 101.52 586.36 113.48"/><polygon class="cls-2" points="637.64 113.48 648 107.5 637.64 101.52 637.64 113.48"/><line class="cls-1" x1="18" y1="108.5" x2="64.39" y2="108.5"/><polygon class="cls-2" points="62.64 114.48 73 108.5 62.64 102.52 62.64 114.48"/><line class="cls-3" x1="18" y1="108.5" y2="108.5"/><line class="cls-3" x1="918" y1="107.5" x2="936" y2="107.5"/><line class="cls-1" x1="216.5" y1="145" x2="216.5" y2="279.89"/><polygon class="cls-2" points="210.52 278.14 216.5 288.5 222.48 278.14 210.52 278.14"/><path class="cls-1" d="M368.61,324l377.32.48a10.56,10.56,0,0,0,10.57-10.56V144"/><polygon class="cls-2" points="370.35 330 360 324 370.37 318.03 370.35 330"/><line class="cls-1" x1="73" y1="324.5" x2="8.61" y2="324.5"/><polygon class="cls-2" points="10.36 318.52 0 324.5 10.36 330.48 10.36 318.52"/><line class="cls-1" x1="918" y1="107.5" x2="871.61" y2="107.5"/><polygon class="cls-2" points="873.36 101.52 863 107.5 873.36 113.48 873.36 101.52"/><rect class="cls-4" x="72" y="72" width="288" height="72" rx="8.3"/><rect class="cls-4" x="72" y="288" width="288" height="72" rx="8.3"/><text class="cls-5" transform="translate(119.01 116.67)"><tspan class="cls-6">I</tspan><tspan class="cls-7" x="6.44" y="0">n</tspan><tspan class="cls-8" x="19.88" y="0">b</tspan><tspan class="cls-9" x="33.1" y="0">o</tspan><tspan class="cls-10" x="45.87" y="0">u</tspan><tspan class="cls-11" x="58.92" y="0">n</tspan><tspan x="72.4" y="0">d </tspan><tspan class="cls-12" x="92.73" y="0">me</tspan><tspan class="cls-13" x="125.52" y="0">s</tspan><tspan class="cls-14" x="135.66" y="0">s</tspan><tspan class="cls-15" x="146.08" y="0">a</tspan><tspan class="cls-16" x="157.86" y="0">g</tspan><tspan class="cls-17" x="170.72" y="0">e</tspan><tspan x="182.56" y="0">s</tspan></text><rect class="cls-4" x="648.08" y="71.89" width="215.92" height="72.11" rx="9.27"/><text class="cls-5" transform="translate(716.93 116.67)"><tspan class="cls-18">A</tspan><tspan class="cls-19" x="14.68" y="0">c</tspan><tspan class="cls-20" x="25.57" y="0">t</tspan><tspan class="cls-21" x="34.37" y="0">i</tspan><tspan class="cls-22" x="40.5" y="0">o</tspan><tspan class="cls-23" x="53.33" y="0">n</tspan><tspan x="66.72" y="0">s</tspan></text><text class="cls-5" transform="translate(109.63 332.67)"><tspan class="cls-24">O</tspan><tspan class="cls-25" x="16.72" y="0">u</tspan><tspan class="cls-26" x="29.7" y="0">t</tspan><tspan class="cls-8" x="38.64" y="0">b</tspan><tspan class="cls-27" x="51.87" y="0">o</tspan><tspan class="cls-10" x="64.64" y="0">u</tspan><tspan class="cls-11" x="77.69" y="0">n</tspan><tspan x="91.17" y="0">d </tspan><tspan class="cls-12" x="111.49" y="0">me</tspan><tspan class="cls-28" x="144.29" y="0">s</tspan><tspan class="cls-29" x="154.43" y="0">s</tspan><tspan class="cls-15" x="164.84" y="0">a</tspan><tspan class="cls-16" x="176.63" y="0">g</tspan><tspan class="cls-30" x="189.49" y="0">e</tspan><tspan x="201.33" y="0">s</tspan></text><rect class="cls-31" x="431.89" y="71.68" width="144.11" height="144.32" rx="9.9"/><text class="cls-5" transform="translate(477.31 116.8)"><tspan class="cls-32">S</tspan><tspan x="11.52" y="0">t</tspan><tspan class="cls-33" x="20.65" y="0">a</tspan><tspan class="cls-34" x="32.33" y="0">t</tspan><tspan x="41.1" y="0">e</tspan></text><rect class="cls-35" x="488.69" y="146.98" width="39.62" height="39.62" transform="translate(12.49 -34.12) rotate(3.89)"/><rect class="cls-36" x="492.95" y="151.49" width="39.62" height="39.62" transform="matrix(0.99, 0.13, -0.13, 0.99, 27.41, -66.83)"/><rect class="cls-37" x="484.42" y="142.46" width="39.62" height="39.62"/></svg>