<?xml version="1.0" encoding="UTF-8"?>
<svg width="1440px" height="223px" viewBox="0 0 1440 223" version="1.1" xmlns="http://www.w3.org/2000/svg" xmlns:xlink="http://www.w3.org/1999/xlink">
    <!-- Generator: Sketch 47.1 (45422) - http://www.bohemiancoding.com/sketch -->
    <title>transition_footer</title>
    <desc>Created with Sketch.</desc>
    <defs></defs>
    <g id="Page-1" stroke="none" stroke-width="1" fill="none" fill-rule="evenodd">
        <g id="https://aestheticintegration.github.io" transform="translate(0.000000, -951.000000)" fill-rule="nonzero">
            <g id="transition_footer" transform="translate(0.000000, 950.000000)">
                <path d="M1446,224 L1446,82 L1409,82 L1409,99 L1392,99 L1392,82 L1375,82 L1375,48 L1357,48 L1357,65 L1340,65 L1340,82 L1315,82 L1315,91 L1306,91 L1306,65 L1272,65 L1272,82 L1289,82 L1289,99 L1272,99 L1272,82 L1255,82 L1255,99 L1263,99 L1263,108 L1255,108 L1255,99 L1237,99 L1237,116 L1220,116 L1220,133 L1203,133 L1203,116 L1220,116 L1220,99 L1203,99 L1203,82.3 L1186,82 L1186,99 L1168,99 L1168,48 L1160,48 L1160,56 L1151,56 L1151,65 L1134,65 L1134,82 L1100,82 L1100,65 L1066,65 L1066,82 L1048,82 L1048,99 L1031,99 L1031,116 L1014,116 L1014,98 L1031,98 L1031,82 L997,82 L997,65 L989,65 L989,74 L979,74 L979,82 L963,82 L963,116 L928,116 L928,133 L911,133 L911,116 L894,116 L894,82 L876,82 L876,56 L868,56 L868,48 L859,48 L859,82 L842,82 L842,99 L825,99 L825,65 L808,65 L808,82 L774,82 L774,99 L791,99 L791,116 L774,116 L774,99 L757,99 L757,82 L744,82 L744,86 L739,86 L739,65 L721.5,65 L721,82 L691,82 L691,99 L673,99 L673,82 L656,82 L656,48 L639,48 L639,65 L623,65 L623,82 L596,82 L596,91 L588,91 L588,65 L554,65 L554,82 L571,82 L571,99 L553,99 L553,82 L536,82 L536,99 L545,99 L545,108 L536,108 L536,99 L519,99 L519,116 L502,116 L502,133 L484,133 L484,116 L502,116 L502,99 L484,99 L484,82 L468,82 L468,99 L451,99 L451,48 L442,48 L442,56 L434,56 L434,65 L416,65 L416,82 L382,82 L382,65 L347,65 L347,82 L330,82 L330,99 L313,99 L313,116 L296,116 L296,98 L313,98 L313,82 L279,82 L279,65 L270,65 L270,74 L262,74 L262,82 L244,82 L244,116 L210,116 L210,133 L193,133 L193,116 L175,116 L175,82 L158,82 L158,56 L150,56 L150,48 L142,48 L142,82 L124,82 L124,99 L107,99 L107,65 L90,65 L90,82 L55,82 L55,99 L73,99 L73,116 L55,116 L55,99 L38,99 L38,82 L25,82 L25,86 L22,65 L0,65 L0,224 L1446,224 Z M112,159 L102,159 L102,150 L112,150 L112,159 Z M146,124 L137,124 L137,115 L146,115 L146,124 Z M214,173 L205,173 L205,164 L214,164 L214,173 Z M283,126 L275,126 L275,117 L283,117 L283,126 Z M352,126 L343,126 L343,116 L352,116 L352,126 Z M414,166 L418,166 L418,170 L414,170 L414,166 Z M387,133 L377,133 L377,124 L387,124 L387,133 Z M421,124 L412,124 L412,115 L421,115 L421,124 Z M455,133 L446,133 L446,124 L455,124 L455,133 Z M489,192 L480,192 L480,184 L489,184 L489,192 Z M592,159 L583,159 L583,151 L592,151 L592,159 Z M626,126 L618,126 L618,116 L626,116 L626,126 Z M661,119 L656,119 L656,115 L661,115 L661,119 Z M829,159 L821,159 L821,150 L829,150 L829,159 Z M864,124 L855,124 L855,115 L864,115 L864,124 Z M933,173 L924,173 L924,164 L933,164 L933,173 Z M1002,126 L993,126 L993,117 L1002,117 L1002,126 Z M1070,126 L1061,126 L1061,116 L1070,116 L1070,126 Z M1132,166 L1136,166 L1136,170 L1132,170 L1132,166 Z M1104,133 L1095,133 L1095,124 L1104,124 L1104,133 Z M1138,124 L1130,124 L1130,115 L1138,115 L1138,124 Z M1173,133 L1164,133 L1164,124 L1173,124 L1173,133 Z M1207,192 L1198,192 L1198,184 L1207,184 L1207,192 Z M1309,159 L1301,159 L1301,151 L1309,151 L1309,159 Z M1344,126 L1334,126 L1334,116 L1344,116 L1344,126 Z M1378,119 L1374,119 L1374,115 L1378,115 L1378,119 Z" id="Shape" fill="#F4F4F4"></path>
                <g id="Group-5-Copy-4" transform="translate(4.980147, 0.406217)">
                    <polygon id="Fill-2_3_" fill="#E2E0DF" points="391 93.6 409 93.6 409 75.6 391 75.6"></polygon>
                    <polygon id="Fill-3_1_" fill="#E2E0DF" points="775 127.6 793 127.6 793 109.6 775 109.6"></polygon>
                    <polygon id="Fill-4_1_" fill="#8CC396" points="877 125.6 895 125.6 895 107.6 877 107.6"></polygon>
                    <polygon id="Fill-5_3_" fill="#E2E0DF" points="209 92.6 227 92.6 227 75.6 209 75.6"></polygon>
                    <polygon id="Fill-6_1_" fill="#E2E0DF" points="841 108.6 859 108.6 859 91.6 841 91.6"></polygon>
                    <polygon id="Fill-7_2_" fill="#8CC396" points="633 91.6 651 91.6 651 73.6 633 73.6"></polygon>
                    <polygon id="Fill-8_3_" fill="#8CC396" points="533 118.6 551 118.6 551 100.6 533 100.6"></polygon>
                    <polygon id="Fill-9_2_" fill="#8CC396" points="281 115.6 299 115.6 299 97.6 281 97.6"></polygon>
                    <polygon id="Fill-10_3_" fill="#E2E0DF" points="382 74.6 390 74.6 390 66.6 382 66.6"></polygon>
                    <polygon id="Fill-11_3_" fill="#E2E0DF" points="529 38.6 539 38.6 539 30.6 529 30.6"></polygon>
                    <polygon id="Fill-12_3_" fill="#8CC396" points="493 72.6 503 72.6 503 62.6 493 62.6"></polygon>
                    <polygon id="Fill-13_2_" fill="#8CC396" points="676 75.6 686 75.6 686 65.6 676 65.6"></polygon>
                    <polygon id="Fill-14_1_" fill="#E2E0DF" points="793 108.6 803 108.6 803 100.6 793 100.6"></polygon>
                    <polygon id="Fill-15_3_" fill="#8CC396" points="241 38.6 251 38.6 251 28.6 241 28.6"></polygon>
                    <polygon id="Fill-16_3_" fill="#E2E0DF" points="350 55.6 360 55.6 360 47.6 350 47.6"></polygon>
                    <polygon id="Fill-17_2_" fill="#E2E0DF" points="278 8.6 286 8.6 286 0.6 278 0.6"></polygon>
                    <polygon id="Fill-18_3_" fill="#8CC396" points="454 127.6 462 127.6 462 119.6 454 119.6"></polygon>
                    <polygon id="Fill-19_1_" fill="#8CC396" points="750 144.6 760 144.6 760 134.6 750 134.6"></polygon>
                    <polygon id="Fill-20_3_" fill="#8CC396" points="458 73.6 462 73.6 462 69.6 458 69.6"></polygon>
                    <polygon id="Fill-2_2_" fill="#E2E0DF" points="41 91.6 59 91.6 59 73.6 41 73.6"></polygon>
                    <polygon id="Fill-8_2_" fill="#8CC396" points="184 117.6 202 117.6 202 99.6 184 99.6"></polygon>
                    <polygon id="Fill-10_2_" fill="#E2E0DF" points="33 73.6 41 73.6 41 65.6 33 65.6"></polygon>
                    <polygon id="Fill-11_2_" fill="#E2E0DF" points="179 36.6 189 36.6 189 28.6 179 28.6"></polygon>
                    <polygon id="Fill-12_2_" fill="#8CC396" points="144 70.6 154 70.6 154 60.6 144 60.6"></polygon>
                    <polygon id="Fill-16_2_" fill="#E2E0DF" points="0 53.6 10 53.6 10 45.6 0 45.6"></polygon>
                    <polygon id="Fill-18_2_" fill="#8CC396" points="105 125.6 113 125.6 113 117.6 105 117.6"></polygon>
                    <polygon id="Fill-20_2_" fill="#8CC396" points="109 72.6 113 72.6 113 68.6 109 68.6"></polygon>
                    <polygon id="Fill-21_1_" fill="#8CC396" points="855 55.6 859 55.6 859 51.6 855 51.6"></polygon>
                    <polygon id="Fill-23_1_" fill="#E2E0DF" points="1377 73.6 1395 73.6 1395 55.6 1377 55.6"></polygon>
                    <polygon id="Fill-24_1_" fill="#E2E0DF" points="999 38.6 1017 38.6 1017 20.6 999 20.6"></polygon>
                    <polygon id="Fill-25_1_" fill="#8CC396" points="892 38.6 910 38.6 910 20.6 892 20.6"></polygon>
                    <polygon id="Fill-26_1_" fill="#E2E0DF" points="1420 18.6 1438 18.6 1438 0.6 1420 0.6"></polygon>
                    <polygon id="Fill-27_1_" fill="#E2E0DF" points="927 56.6 945 56.6 945 38.6 927 38.6"></polygon>
                    <polygon id="Fill-28_1_" fill="#8CC396" points="1130 73.6 1148 73.6 1148 55.6 1130 55.6"></polygon>
                    <polygon id="Fill-29_1_" fill="#8CC396" points="1251 38.6 1269 38.6 1269 20.6 1251 20.6"></polygon>
                    <polygon id="Fill-31_1_" fill="#E2E0DF" points="1395 81.6 1403 81.6 1403 73.6 1395 73.6"></polygon>
                    <polygon id="Fill-32_1_" fill="#E2E0DF" points="1247 118.6 1255 118.6 1255 108.6 1247 108.6"></polygon>
                    <polygon id="Fill-33_1_" fill="#8CC396" points="1282 85.6 1292 85.6 1292 75.6 1282 75.6"></polygon>
                    <polygon id="Fill-34_1_" fill="#8CC396" points="1102 83.6 1112 83.6 1112 73.6 1102 73.6"></polygon>
                    <polygon id="Fill-35_1_" fill="#E2E0DF" points="982 48.6 990 48.6 990 38.6 982 38.6"></polygon>
                    <polygon id="Fill-37_1_" fill="#E2E0DF" points="1426 100.6 1436 100.6 1436 90.6 1426 90.6"></polygon>
                    <polygon id="Fill-39_1_" fill="#8CC396" points="1323 28.6 1331 28.6 1331 20.6 1323 20.6"></polygon>
                    <polygon id="Fill-40_1_" fill="#8CC396" points="1026 10.6 1036 10.6 1036 0.6 1026 0.6"></polygon>
                    <polygon id="Fill-41_1_" fill="#8CC396" points="1323 77.6 1327 77.6 1327 73.6 1323 73.6"></polygon>
                    <polygon id="Fill-42_1_" fill="#8CC396" points="926 96.6 930 96.6 930 92.6 926 92.6"></polygon>
                </g>
            </g>
        </g>
    </g>
</svg>